<?xml version="1.0" encoding="utf-8"?>
<!-- Generator: Adobe Illustrator 19.2.0, SVG Export Plug-In . SVG Version: 6.00 Build 0)  -->
<svg version="1.1" xmlns="http://www.w3.org/2000/svg" xmlns:xlink="http://www.w3.org/1999/xlink" x="0px" y="0px"
	 viewBox="0 0 125 40" enable-background="new 0 0 125 40" xml:space="preserve">
<g id="bg" display="none">
	<rect display="inline" fill="#FFFFFF" width="125" height="40"/>
</g>
<g id="icons">
	<g>
  <path d="M46.7,17.811c-1.871,0-3.08,1.2-3.08,3.354a0.2,0.2,0,0,0,.208.208h5.688a0.2,0.2,0,0,0,.208-0.208C49.729,19.02,48.425,17.811,46.7,17.811Zm-9.609,0a2.817,2.817,0,0,0-2.825,2.759,13.975,13.975,0,0,0,0,2.948,2.79,2.79,0,0,0,2.825,2.759,2.7,2.7,0,0,0,2.589-2.759,17.065,17.065,0,0,0,0-2.948A2.687,2.687,0,0,0,37.087,17.811ZM51.959,0H1.606A1.6,1.6,0,0,0,0,1.606V28.394A1.6,1.6,0,0,0,1.606,30H51.959a1.6,1.6,0,0,0,1.606-1.606V1.606A1.6,1.6,0,0,0,51.959,0ZM10.98,26.9a0.419,0.419,0,0,1-.416.416H8.92A0.419,0.419,0,0,1,8.5,26.9v-6.34a1.51,1.51,0,0,0-1.512-1.512H6.661A1.51,1.51,0,0,0,5.15,20.561V26.9a0.419,0.419,0,0,1-.416.416H3.09A0.419,0.419,0,0,1,2.674,26.9V12.926A0.419,0.419,0,0,1,3.09,12.51H4.734a0.419,0.419,0,0,1,.416.416v3.458a0.432,0.432,0,0,0,.633.444,2.891,2.891,0,0,1,1.209-.255,3.988,3.988,0,0,1,3.987,3.987V26.9Zm9.865,0a0.419,0.419,0,0,1-.416.416H18.784a0.419,0.419,0,0,1-.416-0.416v-6.34a1.51,1.51,0,0,0-1.512-1.512H16.535a1.51,1.51,0,0,0-1.512,1.512V26.9a0.419,0.419,0,0,1-.416.416H12.973a0.419,0.419,0,0,1-.416-0.416V12.926a0.419,0.419,0,0,1,.416-0.416h1.644a0.419,0.419,0,0,1,.416.416v3.458a0.432,0.432,0,0,0,.633.444,2.891,2.891,0,0,1,1.209-.255,3.988,3.988,0,0,1,3.987,3.987L20.844,26.9h0Zm6.34,0.416h-1.8A0.433,0.433,0,0,1,24.983,27L21.26,17.263a0.372,0.372,0,0,1,.406-0.482h1.89a0.41,0.41,0,0,1,.406.312l2.211,6.35a0.125,0.125,0,0,0,.236,0l2.211-6.35a0.387,0.387,0,0,1,.406-0.312h1.89a0.366,0.366,0,0,1,.4.482L27.6,27A0.453,0.453,0,0,1,27.184,27.317ZM32.3,26.9a0.419,0.419,0,0,1-.416.416H30.236A0.419,0.419,0,0,1,29.82,26.9V26.494a0.419,0.419,0,0,1,.416-0.416H31.88a0.419,0.419,0,0,1,.416.416V26.9Zm8.674,0a0.423,0.423,0,0,1-.425.425H40.2a0.407,0.407,0,0,1-.293-0.151,0.773,0.773,0,0,0-.529-0.34c-0.614,0-.841.7-2.4,0.7a4.122,4.122,0,0,1-4.006-4.006,21.924,21.924,0,0,1,0-2.948,4.122,4.122,0,0,1,4.006-4.006,7.249,7.249,0,0,1,2.211.529,0.462,0.462,0,0,0,.529-0.529V12.935a0.423,0.423,0,0,1,.425-0.425h0.406a0.423,0.423,0,0,1,.425.425V26.9H40.97Zm9.921-4.762a0.423,0.423,0,0,1-.425.425h-6.68a0.2,0.2,0,0,0-.208.208c0,2.022.926,3.515,3.1,3.515A2.814,2.814,0,0,0,49.5,24.3a0.477,0.477,0,0,1,.482-0.359h0.425a0.34,0.34,0,0,1,.359.425,3.863,3.863,0,0,1-4.091,3.156,4.186,4.186,0,0,1-4.318-4.006,21.924,21.924,0,0,1,0-2.948,4.27,4.27,0,0,1,8.532.208v1.361h0Z">
  </path>
  </g>
</g>
</svg>
