<?xml version="1.0" encoding="utf-8"?>
<!-- Generator: Adobe Illustrator 21.0.0, SVG Export Plug-In . SVG Version: 6.00 Build 0)  -->
<svg version="1.1" xmlns="http://www.w3.org/2000/svg" xmlns:xlink="http://www.w3.org/1999/xlink" x="0px" y="0px"
	 viewBox="0 0 125 40" enable-background="new 0 0 125 40" xml:space="preserve">
<g id="bg" display="none">
	<rect display="inline" fill="#FFFFFF" width="125" height="40"/>
</g>
<g id="icons">
	<g>
		<g id="icons_5_">
			<g id="Amazon_3_">
				<g>
					<path fill="#FF9900" d="M77.548,30.806c-7.263,5.451-17.793,8.351-26.859,8.351c-12.709,0-24.15-4.778-32.809-12.73
						c-0.681-0.625-0.075-1.477,0.743-0.994c9.342,5.53,20.894,8.86,32.828,8.86c8.05,0,16.898-1.698,25.041-5.211
						C77.72,28.552,78.75,29.904,77.548,30.806z"/>
					<path fill="#FF9900" d="M80.571,27.297c-0.93-1.21-6.141-0.573-8.483-0.288c-0.708,0.086-0.818-0.544-0.179-1
						c4.157-2.97,10.97-2.113,11.761-1.118c0.798,1.004-0.209,7.95-4.105,11.264c-0.599,0.51-1.169,0.239-0.903-0.435
						C79.537,33.494,81.499,28.508,80.571,27.297z"/>
				</g>
				<g>
					<path d="M72.254,5.027V2.142c0.001-0.438,0.329-0.731,0.72-0.73l12.715-0.001c0.406,0,0.732,0.3,0.734,0.727l-0.001,2.475
						c-0.001,0.416-0.345,0.958-0.958,1.818l-6.586,9.565c2.447-0.057,5.033,0.315,7.253,1.585c0.502,0.286,0.636,0.711,0.675,1.125
						v3.081c0,0.424-0.457,0.915-0.937,0.659c-3.913-2.084-9.108-2.313-13.435,0.026c-0.443,0.24-0.904-0.244-0.904-0.668v-2.928
						c0-0.468,0.008-1.27,0.472-1.983l7.631-11.136l-6.644-0.001C72.582,5.754,72.256,5.461,72.254,5.027z"/>
					<path d="M25.866,23.052h-3.868c-0.368-0.025-0.662-0.306-0.691-0.666L21.31,2.191c0-0.404,0.333-0.727,0.746-0.727l3.603-0.001
						c0.376,0.019,0.678,0.31,0.702,0.678v2.636h0.072c0.94-2.549,2.71-3.74,5.093-3.74c2.42,0,3.936,1.191,5.021,3.74
						c0.938-2.549,3.069-3.74,5.344-3.74c1.626,0,3.395,0.681,4.479,2.211c1.227,1.699,0.975,4.165,0.975,6.331l-0.003,12.747
						c0,0.402-0.334,0.726-0.746,0.726H42.73c-0.389-0.025-0.694-0.337-0.694-0.724l-0.001-10.706c0-0.851,0.074-2.976-0.109-3.783
						c-0.288-1.36-1.155-1.743-2.274-1.743c-0.938,0-1.915,0.638-2.312,1.657c-0.398,1.02-0.361,2.721-0.361,3.869v10.705
						c0,0.402-0.334,0.726-0.746,0.726h-3.864c-0.389-0.025-0.694-0.337-0.694-0.724L31.67,11.622c0-2.253,0.361-5.569-2.383-5.569
						c-2.782,0-2.673,3.23-2.673,5.569l-0.001,10.705C26.613,22.729,26.279,23.052,25.866,23.052z"/>
					<path d="M97.369,1.038c5.743,0,8.849,5.015,8.849,11.39c0,6.162-3.43,11.051-8.849,11.051c-5.633,0-8.703-5.016-8.703-11.264
						C88.667,5.925,91.773,1.038,97.369,1.038z M97.406,5.161c-2.853,0-3.033,3.951-3.033,6.417c0,2.465-0.037,7.735,2.997,7.735
						c2.999,0,3.142-4.25,3.142-6.841c0-1.701-0.071-3.74-0.577-5.356C99.501,5.713,98.634,5.161,97.406,5.161z"/>
					<path d="M113.663,23.052h-3.854c-0.387-0.025-0.694-0.337-0.694-0.724L109.11,2.124c0.033-0.37,0.353-0.659,0.743-0.659
						l3.59-0.001c0.337,0.018,0.615,0.252,0.686,0.566v3.089h0.074c1.083-2.763,2.599-4.081,5.271-4.081
						c1.733,0,3.431,0.637,4.514,2.38C125,5.033,125,7.752,125,9.708v12.709c-0.044,0.357-0.36,0.636-0.742,0.636h-3.879
						c-0.357-0.023-0.646-0.291-0.689-0.636V11.451c0-2.209,0.252-5.44-2.419-5.44c-0.94,0-1.806,0.638-2.238,1.615
						c-0.541,1.233-0.615,2.466-0.615,3.826v10.875C114.411,22.729,114.075,23.052,113.663,23.052z"/>
				</g>
			</g>
		</g>
		<path d="M69.005,19.354c-0.708-0.994-1.462-1.803-1.462-3.647V9.576c0-2.599,0.183-4.984-1.699-6.772
			c-1.484-1.45-3.946-1.96-5.828-1.96c-3.681,0-7.789,1.398-8.651,6.026c-0.091,0.491,0.259,0.75,0.577,0.822l3.749,0.412
			c0.35-0.018,0.605-0.368,0.672-0.723c0.322-1.595,1.634-2.364,3.11-2.364c0.796,0,1.7,0.299,2.171,1.023
			c0.544,0.809,0.472,1.916,0.472,2.853v0.511c-2.245,0.255-5.176,0.426-7.276,1.363c-2.425,1.065-4.124,3.238-4.124,6.432
			c0,4.089,2.533,6.133,5.79,6.133c2.751,0,4.255-0.66,6.379-2.86c0.703,1.033,0.933,1.534,2.218,2.621
			c0.289,0.159,0.658,0.144,0.914-0.091l0.006,0.012c0.774-0.7,2.178-1.94,2.968-2.615C69.308,20.138,69.252,19.711,69.005,19.354z
			 M62.118,13.408L62.118,13.408c-0.001,1.533,0.033,2.811-0.725,4.173c-0.616,1.107-1.593,1.789-2.68,1.789
			c-1.482,0-2.351-1.151-2.351-2.855c0-3.351,2.956-3.961,5.756-3.961V13.408z"/>
		<path d="M18.289,19.353c-0.708-0.994-1.462-1.803-1.462-3.647V9.575c0-2.599,0.183-4.984-1.699-6.772
			c-1.484-1.45-3.946-1.96-5.828-1.96c-3.681,0-7.789,1.398-8.651,6.026C0.558,7.36,0.91,7.619,1.226,7.691l3.751,0.412
			c0.352-0.018,0.605-0.368,0.672-0.722c0.322-1.595,1.634-2.364,3.108-2.364c0.797,0,1.703,0.298,2.173,1.023
			c0.543,0.809,0.469,1.916,0.469,2.853v0.511C9.157,9.659,6.224,9.83,4.124,10.767C1.701,11.832,0,14.005,0,17.199
			c0,4.089,2.533,6.133,5.791,6.133c2.749,0,4.253-0.66,6.377-2.86c0.703,1.033,0.933,1.534,2.218,2.621
			c0.289,0.159,0.657,0.144,0.915-0.091l0.008,0.011c0.773-0.7,2.176-1.94,2.966-2.615C18.592,20.137,18.536,19.71,18.289,19.353z
			 M10.676,17.581c-0.616,1.107-1.593,1.789-2.679,1.789c-1.484,0-2.353-1.151-2.353-2.855c0-3.351,2.957-3.961,5.754-3.961v0.854
			h0.001C11.399,14.941,11.436,16.219,10.676,17.581z"/>
	</g>
</g>
</svg>
